<?xml version="1.0" standalone="no"?>
<!DOCTYPE svg PUBLIC "-//W3C//DTD SVG 20010904//EN"
 "http://www.w3.org/TR/2001/REC-SVG-20010904/DTD/svg10.dtd">
<svg version="1.0" xmlns="http://www.w3.org/2000/svg"
 width="128.000000pt" height="128.000000pt" viewBox="0 0 128.000000 128.000000"
 preserveAspectRatio="xMidYMid meet">

<g transform="translate(0.000000,128.000000) scale(0.100000,-0.100000)"
fill="#000000" stroke="none">
<path d="M269 1250 l23 -20 -35 0 c-43 0 -196 -26 -231 -40 l-26 -10 44 -40
c52 -48 76 -94 76 -147 0 -35 4 -39 39 -54 62 -26 88 -88 66 -158 -5 -18 -2
-21 25 -21 40 0 97 -54 106 -99 l7 -31 32 20 c42 26 118 26 165 2 46 -25 47
-36 4 -40 -20 -1 -71 -17 -113 -36 -42 -18 -101 -39 -131 -45 -137 -31 -199
-80 -261 -207 -27 -54 -31 -72 -27 -119 7 -85 52 -132 164 -175 43 -15 79 -20
161 -20 59 0 104 2 102 5 -3 2 -54 11 -114 20 -157 22 -210 61 -210 155 0 112
126 186 228 134 42 -22 41 -20 23 -46 -17 -23 -22 -117 -10 -177 6 -28 10 -31
43 -30 20 0 70 6 111 13 57 9 76 16 78 29 2 10 -4 20 -15 24 -32 11 -53 36
-53 62 0 42 11 50 70 48 30 -1 74 1 97 6 l42 7 3 -97 3 -98 110 2 c161 3 188
15 119 53 -32 18 -44 65 -33 130 3 19 2 47 -2 62 -5 20 -2 31 13 45 31 27 55
91 68 179 12 82 37 151 61 170 10 9 31 9 76 2 47 -8 66 -8 77 1 17 14 10 44
-8 35 -6 -3 -3 1 7 9 27 22 20 29 -10 10 -19 -12 -25 -14 -19 -4 7 11 4 13
-10 9 -24 -6 -30 25 -8 43 8 6 14 8 14 3 0 -5 4 -15 9 -22 6 -11 14 -8 36 14
40 40 27 73 -35 89 -25 7 -59 19 -77 28 -18 10 -43 17 -57 17 -31 0 -62 41
-75 99 -5 24 -12 45 -14 48 -12 11 -27 -10 -40 -54 l-13 -45 -17 25 c-9 14
-22 48 -29 74 -7 26 -14 50 -16 53 -5 7 -22 -23 -21 -40 0 -10 3 -8 8 5 6 16
9 12 15 -20 10 -56 48 -109 92 -130 34 -16 35 -18 18 -28 -10 -6 -25 -19 -33
-29 -13 -19 -14 -19 -33 -1 -30 27 -56 84 -61 131 -4 47 -17 69 -17 30 0 -45
28 -120 60 -159 24 -30 29 -43 21 -57 -5 -10 -13 -58 -17 -106 -9 -110 -32
-151 -84 -151 -32 0 -37 4 -60 50 -19 40 -25 69 -28 145 -4 83 -1 104 23 170
43 123 48 145 41 174 -6 23 -9 26 -21 16 -13 -10 -15 -8 -15 14 0 30 -7 32
-31 11 -15 -14 -20 -14 -56 4 -79 42 -313 101 -395 101 l-43 -1 24 -19z m86
-20 c13 -6 15 -9 5 -9 -8 0 -22 4 -30 9 -18 12 -2 12 25 0z m185 -75 c68 -33
121 -65 109 -65 -10 0 -195 100 -186 100 4 0 39 -16 77 -35z m-133 -8 c74 -26
167 -80 193 -112 14 -17 13 -18 -10 -11 -46 14 -224 18 -283 7 -32 -6 -83 -21
-115 -34 l-58 -23 -1 38 c-2 46 -14 69 -67 126 l-41 45 155 -5 c132 -5 166 -9
227 -31z m353 -2 c0 -8 -4 -15 -9 -15 -13 0 -22 16 -14 24 11 11 23 6 23 -9z
m40 -42 c-1 -24 -2 -26 -11 -10 -5 9 -7 22 -4 27 10 17 15 11 15 -17z m-85
-40 c-2 -10 -4 -19 -4 -21 -1 -2 -6 0 -11 3 -8 5 -7 11 1 21 15 18 18 18 14
-3z m312 -95 c20 -23 3 -24 -37 -3 -34 17 -35 22 -18 77 l12 40 14 -48 c8 -27
21 -57 29 -66z m-467 43 c21 -8 22 -10 5 -10 -49 -2 -205 -93 -282 -165 l-33
-30 0 30 c0 38 -32 89 -71 113 l-31 19 66 22 c36 12 87 26 114 30 57 11 197 5
232 -9z m-18 -83 c-70 -72 -111 -125 -153 -201 -16 -28 -29 -45 -29 -36 0 20
-48 65 -84 79 l-29 11 29 30 c63 66 256 176 313 178 8 1 -13 -27 -47 -61z m48
-24 c-36 -85 -37 -133 -5 -202 14 -30 25 -56 25 -58 0 -2 -21 8 -46 21 -53 28
-99 32 -149 11 -19 -8 -35 -13 -35 -10 0 16 34 82 71 136 38 56 158 183 166
175 1 -2 -11 -35 -27 -73z m660 -88 c0 -3 -4 -8 -10 -11 -5 -3 -10 -1 -10 4 0
6 5 11 10 11 6 0 10 -2 10 -4z m-120 -16 c0 -5 5 -10 11 -10 5 0 8 4 5 8 -3 5
0 9 7 9 7 0 13 -11 13 -24 2 -28 4 -27 -41 -6 -24 12 -31 19 -23 25 18 11 28
10 28 -2z m-68 -79 c15 -1 15 -4 2 -31 -9 -16 -20 -30 -25 -30 -6 0 -8 -4 -5
-9 11 -18 -6 -71 -23 -71 -13 0 -13 -2 -2 -9 18 -12 6 -85 -12 -74 -8 4 -8 2
1 -9 28 -35 -56 -151 -128 -176 -25 -9 -26 -8 -27 29 -2 41 9 50 26 22 6 -10
11 -13 11 -8 0 6 -5 16 -11 22 -7 7 -3 21 15 48 14 21 26 44 26 51 0 7 6 19
13 26 38 38 62 107 59 171 0 15 3 25 8 22 4 -3 6 4 3 14 -4 17 -1 19 23 17 16
-2 37 -4 46 -5z m-643 -325 c2 -64 -12 -94 -30 -65 -5 8 -9 10 -9 6 0 -4 -9
-3 -20 3 -22 12 -118 20 -122 11 -2 -3 -19 -14 -38 -24 -19 -10 -44 -30 -54
-44 -23 -32 -33 -121 -17 -152 7 -11 9 -21 7 -21 -3 0 -11 10 -17 22 -42 79
-24 164 48 228 25 22 52 40 59 40 8 0 14 4 14 9 0 5 12 12 28 17 32 9 32 9 52
17 25 9 41 13 70 15 26 2 27 1 29 -62z m272 -8 c18 1 64 -93 54 -108 -7 -11
-94 -29 -125 -25 -14 1 -38 3 -54 4 l-30 1 30 29 c17 16 39 48 50 70 15 33 23
39 39 34 11 -4 27 -6 36 -5z m169 -187 c0 -45 -3 -62 -10 -55 -14 14 -25 107
-16 131 13 32 26 -7 26 -76z m-393 -33 c-2 -13 -4 -5 -4 17 -1 22 1 32 4 23 2
-10 2 -28 0 -40z m133 -48 c0 -5 -2 -10 -4 -10 -3 0 -8 5 -11 10 -3 6 -1 10 4
10 6 0 11 -4 11 -10z m405 -20 c3 -6 -1 -7 -9 -4 -18 7 -21 14 -7 14 6 0 13
-4 16 -10z"/>
<path d="M396 413 c-6 -14 -5 -15 5 -6 7 7 10 15 7 18 -3 3 -9 -2 -12 -12z"/>
<path d="M1190 790 c0 -5 5 -10 10 -10 6 0 10 5 10 10 0 6 -4 10 -10 10 -5 0
-10 -4 -10 -10z"/>
</g>
</svg>
